<?xml version="1.0" encoding="UTF-8" standalone="no"?>
<!-- Created with Inkscape (http://www.inkscape.org/) -->
<svg
   xmlns:svg="http://www.w3.org/2000/svg"
   xmlns="http://www.w3.org/2000/svg"
   version="1.0"
   width="601"
   height="601"
   id="svg2">
  <defs
     id="defs4" />
  <g
     transform="translate(-2.3571428,-444.29075)"
     id="layer1">
    <g
       id="g3207">
      <rect
         width="600.00165"
         height="600.00165"
         rx="37.437706"
         ry="37.437706"
         x="2.8563123"
         y="444.78992"
         id="rect2383"
         style="opacity:1;fill:#ffffff;fill-opacity:1;fill-rule:nonzero;stroke:#999999;stroke-width:0.99833888;stroke-linecap:butt;stroke-linejoin:round;stroke-miterlimit:4;stroke-dasharray:none;stroke-opacity:1" />
      <rect
         width="595"
         height="595"
         rx="37.438"
         ry="37.437706"
         x="5.3841429"
         y="447.26376"
         id="rect3165"
         style="opacity:1;fill:#000000;fill-opacity:1;fill-rule:nonzero;stroke:none;stroke-width:1;stroke-linecap:butt;stroke-linejoin:round;stroke-miterlimit:4;stroke-dasharray:none;stroke-opacity:1" />
      <path
         d="M 496.34146,294.90244 C 496.34146,407.37995 402.97645,498.56098 287.80487,498.56098 C 172.63329,498.56098 79.26828,407.37995 79.26828,294.90244 C 79.26828,182.42493 172.63329,91.2439 287.80487,91.2439 C 402.97645,91.2439 496.34146,182.42493 496.34146,294.90244 L 496.34146,294.90244 z"
         transform="matrix(1.2737573,0,0,1.3042665,-64.236408,360.65937)"
         id="path3205"
         style="opacity:1;fill:#ffffff;fill-opacity:1;fill-rule:nonzero;stroke:none;stroke-width:1;stroke-linecap:butt;stroke-linejoin:round;stroke-miterlimit:4;stroke-dasharray:none;stroke-opacity:1" />
    </g>
    <path
       d="M 157.73646,889.60626 L 157.73646,640.61984 L 134.38657,640.61984 L 134.38657,618.14062 C 141.87962,616.69856 148.07547,614.60763 152.97414,611.86781 C 157.87274,609.12854 162.77138,605.16434 167.67006,599.97519 L 194.47627,599.97519 L 194.47627,889.60626 L 157.73646,889.60626 z M 373.07001,681.2513 C 373.06986,767.41299 338.48918,838.59272 269.32787,894.79073 L 248.99895,863.23539 C 265.42738,849.40138 279.18886,835.27933 290.28341,820.86918 C 301.37784,806.45916 310.67161,789.74707 318.16477,770.73286 C 316.73115,771.30463 314.28183,771.59046 310.81681,771.59034 C 301.5999,771.59046 292.95693,769.64683 284.88787,765.75946 C 276.81869,761.87234 269.89948,756.46801 264.13021,749.54645 C 259.52176,743.20563 255.84778,734.05696 253.10826,722.10043 C 250.36869,710.14423 248.99892,697.53486 248.99895,684.27228 C 248.99892,666.98214 250.94475,651.78054 254.83642,638.66742 C 258.72804,625.5548 264.27528,615.68717 271.47817,609.0645 C 277.24743,604.44757 283.37293,600.91431 289.85467,598.4647 C 296.33629,596.01567 303.75899,594.79102 312.12282,594.79072 C 332.00751,594.79102 347.13655,602.21153 357.51001,617.05228 C 367.8832,631.89357 373.06986,653.29322 373.07001,681.2513 L 373.07001,681.2513 z M 335.45953,684.27228 C 335.45942,661.22163 332.71987,646.95666 327.24089,641.47732 C 323.21283,635.42683 317.73814,632.40146 310.81681,632.40121 C 302.46178,632.40146 296.33848,636.86916 292.44691,645.80431 C 288.55519,654.73995 286.60937,669.00492 286.60943,688.59926 C 286.60937,704.15725 288.62775,715.61232 292.66457,722.96451 C 296.70126,730.31703 302.752,733.9932 310.81681,733.99305 C 319.4619,733.9932 325.7303,730.029 329.62205,722.10043 C 333.51359,714.17219 335.45942,701.56282 335.45953,684.27228 L 335.45953,684.27228 z M 426.22072,889.60626 L 426.22072,640.61984 L 402.87082,640.61984 L 402.87082,618.14062 C 410.36387,616.69856 416.55972,614.60763 421.45839,611.86781 C 426.357,609.12854 431.25563,605.16434 436.15432,599.97519 L 462.96053,599.97519 L 462.96053,889.60626 L 426.22072,889.60626 z"
       id="text3212"
       style="font-size:432.27651978px;font-style:normal;font-variant:normal;font-weight:normal;font-stretch:normal;text-align:center;line-height:100%;writing-mode:lr-tb;text-anchor:middle;fill:#000000;fill-opacity:1;stroke:none;stroke-width:1px;stroke-linecap:butt;stroke-linejoin:miter;stroke-opacity:1;font-family:Roadgeek 2005 Series D;-inkscape-font-specification:Roadgeek 2005 Series D" />
  </g>
</svg>
